<?xml version="1.0" standalone="no"?>
<!DOCTYPE svg PUBLIC "-//W3C//DTD SVG 20010904//EN"
 "http://www.w3.org/TR/2001/REC-SVG-20010904/DTD/svg10.dtd">
<svg version="1.0" xmlns="http://www.w3.org/2000/svg"
 width="700.000000pt" height="700.000000pt" viewBox="0 0 700.000000 700.000000"
 preserveAspectRatio="xMidYMid meet">
<metadata>
Created by potrace 1.11, written by Peter Selinger 2001-2013
</metadata>
<g transform="translate(0.000000,700.000000) scale(0.100000,-0.100000)"
fill="#000000" stroke="none">
<path d="M3326 5495 l-136 -304 0 -651 0 -650 335 0 336 0 -3 698 -3 697 -26
61 c-53 123 -179 289 -303 398 l-63 55 -137 -304z"/>
<path d="M3083 3753 l-153 -4 0 -129 0 -130 130 0 130 0 2 -532 3 -533 333 -3
332 -2 0 535 0 535 135 0 136 0 -3 133 -3 132 -445 0 c-245 1 -514 -1 -597 -2z"/>
<path d="M3409 2033 c-277 -344 -327 -562 -166 -727 154 -158 426 -119 531 75
55 101 47 216 -25 361 -52 103 -245 368 -269 368 -5 0 -37 -35 -71 -77z"/>
</g>
</svg>
