<svg width="136" height="54" viewBox="0 0 136 54" fill="none" xmlns="http://www.w3.org/2000/svg">
<path d="M9.73884 35.2603C9.73884 37.0171 10.1208 38.0769 10.8846 38.4398C11.1137 38.5352 11.362 38.6307 11.6293 38.7262C12.4122 38.9744 12.9756 39.2322 13.3193 39.4996V41.0177H0V39.4996C0.420107 39.1559 0.849761 38.9363 1.28896 38.8408C1.72817 38.7453 2.11963 38.6116 2.46335 38.4398C3.24628 38.0197 3.63774 36.9598 3.63774 35.2603V6.15838C3.63774 4.24881 3.26537 3.14125 2.52064 2.83572C2.29149 2.74024 2.04325 2.65431 1.77591 2.57793C0.935692 2.38697 0.343724 2.15782 0 1.89048V0.143218H9.73884V35.2603ZM12.1163 23.8888L17.2148 19.134C18.5324 17.9118 19.1912 17.0143 19.1912 16.4414C19.1912 15.8686 18.4274 15.4294 16.8997 15.1238C16.4796 15.0284 16.0882 14.8947 15.7254 14.7228V12.9183H28.4431V14.6083C28.0039 14.8183 27.5265 15.0379 27.011 15.2671C26.4954 15.4771 25.9129 15.7731 25.2637 16.155C23.736 17.0334 22.1129 18.3033 20.3943 19.9646L17.1289 23.1154L25.722 37.0362C26.2185 37.8764 26.7532 38.392 27.326 38.583C27.918 38.7739 28.3858 38.9172 28.7296 39.0126C29.0733 39.089 29.4266 39.2322 29.7894 39.4423V41.0177H17.2148V39.4996C18.1505 39.0604 18.6375 38.392 18.6757 37.4945C18.6757 37.2463 18.6184 37.0171 18.5038 36.8071L12.1163 25.6074V23.8888Z" fill="#094067"/>
<path d="M40.9604 19.535V35.3749C40.9604 37.0935 41.3805 38.1151 42.2207 38.4398C42.4881 38.5543 42.7745 38.6498 43.08 38.7262C44.0921 39.0126 44.8082 39.2704 45.2283 39.4996V41.0177H31.4221V39.4996C31.7849 39.2704 32.1668 39.089 32.5678 38.9553C32.9688 38.8026 33.3412 38.6307 33.6849 38.4398C34.4678 38.0388 34.8593 37.3895 34.8593 36.492V19.9073C34.8593 17.7113 34.6779 16.4414 34.3151 16.0977C33.9714 15.754 33.6276 15.5058 33.2839 15.353C32.9593 15.2002 32.6156 15.0761 32.2527 14.9806C31.8899 14.866 31.5748 14.7037 31.3075 14.4937V12.7464H40.6167L40.9604 19.535ZM49.7254 20.4516C48.8851 20.4516 48.2263 20.2511 47.7489 19.85C47.2716 19.449 47.0329 18.9525 47.0329 18.3606C47.0329 17.7686 47.2811 17.1862 47.7776 16.6133C47.6057 16.4987 47.3861 16.4414 47.1188 16.4414C45.8203 16.4605 44.56 17.3771 43.3378 19.1912V14.7801C44.7509 13.0233 46.355 12.1449 48.15 12.1449C50.2123 12.1449 51.5967 13.0424 52.3033 14.8374C52.5324 15.3912 52.647 16.1359 52.647 17.0716C52.647 18.0073 52.3701 18.8093 51.8163 19.4777C51.2626 20.1269 50.5656 20.4516 49.7254 20.4516Z" fill="#094067"/>
<path d="M84.556 13.8349C86.1983 12.7082 88.0792 12.1449 90.1988 12.1449C93.5979 12.1449 96.0708 13.3097 97.6175 15.6394C98.0758 16.3269 98.41 17.0621 98.62 17.845V36.492C98.62 37.4277 98.9924 38.096 99.7372 38.4971C100.081 38.688 100.453 38.8503 100.854 38.984C101.255 39.0986 101.647 39.2704 102.029 39.4996V41.0177H91.0581V39.0699C91.0581 38.7071 91.2204 38.3729 91.5451 38.0674C91.8697 37.7619 92.1084 37.5041 92.2612 37.294C92.4139 37.0649 92.4903 36.7402 92.4903 36.3201V19.7928C92.4903 16.7374 91.1536 15.2098 88.4802 15.2098C86.9143 15.2098 85.6063 15.7158 84.556 16.7279V13.8349ZM104.893 15.2098C103.442 15.2098 102.143 15.6776 100.997 16.6133V13.8062C102.716 12.7369 104.406 12.2022 106.067 12.2022C107.748 12.2022 109.094 12.3645 110.106 12.6891C111.137 13.0138 112.016 13.5102 112.741 14.1786C114.288 15.5726 115.061 17.6349 115.061 20.3656V36.492C115.061 37.4277 115.453 38.096 116.236 38.4971C116.561 38.688 116.923 38.8503 117.324 38.984C117.744 39.0986 118.155 39.2704 118.556 39.4996V41.0177H107.528V39.0699C107.528 38.7071 107.691 38.3634 108.015 38.0388C108.645 37.4086 108.96 36.8166 108.96 36.2628V19.535C108.96 16.6515 107.605 15.2098 104.893 15.2098ZM82.1786 36.492C82.1786 37.3895 82.5701 38.0388 83.353 38.4398C83.6967 38.6307 84.0786 38.8026 84.4987 38.9553C84.9379 39.089 85.3676 39.2704 85.7877 39.4996V41.0177H72.4398V39.4996C72.8408 39.2704 73.2513 39.089 73.6714 38.9553C74.1106 38.8026 74.5021 38.6307 74.8458 38.4398C75.6479 38.0197 76.0489 37.3704 76.0489 36.492V18.7329C76.0489 16.8425 75.6765 15.7445 74.9318 15.4389C74.7026 15.3434 74.4544 15.2575 74.187 15.1811C73.3468 14.9902 72.7357 14.761 72.3538 14.4937V12.7464H82.1786V36.492Z" fill="#094067"/>
<path d="M132.42 12.5746V36.492C132.42 37.3895 132.811 38.0388 133.594 38.4398C133.957 38.6307 134.348 38.8026 134.768 38.9553C135.188 39.089 135.599 39.2704 136 39.4996V41.0177H122.681V39.4996C123.082 39.2704 123.492 39.089 123.912 38.9553C124.352 38.8026 124.753 38.6307 125.115 38.4398C125.917 38.0388 126.318 37.3895 126.318 36.492V17.3294C126.318 16.3173 125.937 15.6203 125.173 15.2384C124.829 15.0666 124.438 14.9329 123.998 14.8374C123.559 14.7228 123.12 14.551 122.681 14.3218V12.7464L132.42 12.5746ZM125.259 3.69503C125.259 2.58748 125.612 1.69952 126.318 1.03117C127.025 0.343724 127.789 0 128.61 0C129.45 0 130.099 0.0954788 130.558 0.286436C131.035 0.458298 131.446 0.706543 131.789 1.03117C132.515 1.71862 132.878 2.60657 132.878 3.69503C132.878 4.76439 132.515 5.6428 131.789 6.33024C131.083 6.9986 130.166 7.33277 129.04 7.33277C127.932 7.33277 127.025 6.9986 126.318 6.33024C125.612 5.66189 125.259 4.78349 125.259 3.69503Z" fill="#094067"/>
<path d="M61.2464 53.239C60.3821 53.239 59.5532 52.9008 58.942 52.2987C58.3308 51.6967 57.9874 50.8801 57.9874 50.0286C57.9874 47.8884 61.2464 44.2767 61.2464 44.2767C61.2464 44.2767 64.5054 47.8884 64.5054 50.0286C64.5054 50.8801 64.1621 51.6967 63.5509 52.2987C62.9397 52.9008 62.1108 53.239 61.2464 53.239V53.239Z" fill="#EF4565"/>
<path d="M61.0728 8.47963L58.4451 14.3231L58.4451 27.0574H64.95L64.9408 14.3323C64.9408 11.5575 61.0728 8.47963 61.0728 8.47963ZM55.8633 28.3896L55.8449 30.9622H58.4359L58.4451 41.3537L64.9408 41.3628L64.9408 30.9622L67.541 30.9714V28.3621L55.8633 28.3896Z" fill="#094067"/>
<path fill-rule="evenodd" clip-rule="evenodd" d="M58.9584 35.3145L58.9584 37.2336C58.9584 38.1311 58.5819 38.7803 57.829 39.1813C57.4884 39.3723 57.1119 39.5442 56.6995 39.6969C56.3051 39.8306 55.9197 40.012 55.5432 40.2412L55.5432 41.7593L68.0477 41.7593L68.0477 40.2412C67.6712 40.012 67.2858 39.8306 66.8914 39.6969C66.497 39.5442 66.1295 39.3723 65.7888 39.1813C65.0538 38.7803 64.6863 38.1311 64.6863 37.2336L64.6863 35.3145L58.9584 35.3145Z" fill="#094067"/>
</svg>
