<svg width="38" height="49" viewBox="0 0 38 49" fill="none" xmlns="http://www.w3.org/2000/svg">
<g clip-path="url(#clip0)">
<path fill-rule="evenodd" clip-rule="evenodd" d="M37.4007 16.8356C37.071 16.4765 36.2618 15.8751 35.6024 15.4977L27.9048 11.0933C27.2454 10.7158 26.7053 9.78967 26.7053 9.03433V2.79442H28.6494C29.4106 2.79442 30.0339 2.17714 30.0339 1.42279V1.37263C30.0339 0.617783 29.4106 0 28.6494 0H25.3674C25.3589 0 25.3514 0.00148983 25.3439 0.00148983C25.3363 0.00148983 25.3288 0 25.3208 0H25.2702C24.5086 0 23.8852 0.617783 23.8852 1.37263V7.42034C23.8852 8.17569 23.8852 9.41026 23.8852 10.1656V10.6488C23.8852 11.4032 24.4249 12.3293 25.0848 12.7068L32.7813 17.1112C33.4412 17.4886 34.2505 18.0905 34.5802 18.4496C34.9099 18.8081 35.1799 20.4737 35.1799 21.2276V34.2556C35.1799 35.0105 35.0582 36.0057 34.9099 36.468C34.7616 36.9304 33.4412 37.9951 32.7813 38.3725L21.3979 44.8866C20.7385 45.264 19.808 45.6568 19.3295 45.7606C18.8514 45.8644 17.2615 45.264 16.6016 44.8866L5.21819 38.3725C4.55828 37.9951 3.74954 37.3927 3.41933 37.0342C3.08963 36.6756 2.82005 35.0105 2.82005 34.2556V21.2276C2.82005 20.4737 2.94131 19.4775 3.09013 19.0152C3.23794 18.5528 4.55828 17.4881 5.21869 17.1112L12.801 12.7723C13.4604 12.3944 13.9995 11.4682 13.9995 10.7144V10.2312C13.9995 9.47631 13.9995 8.24174 13.9995 7.48639V1.62987C14.01 1.56233 14.0171 1.49331 14.0171 1.42328V1.37263C14.0171 0.617783 13.3947 0 12.6326 0H12.6151H12.5639H9.35005C8.58842 0 7.96558 0.617783 7.96558 1.37263V1.42328C7.96558 2.17763 8.58842 2.79492 9.35005 2.79492H11.179V9.10038C11.179 9.85522 10.6393 10.7819 9.9794 11.1593L2.39814 15.4977C1.73873 15.8751 0.929493 16.4765 0.599786 16.8356C0.269578 17.1941 0 18.8598 0 19.6141V35.8686C0 36.6235 0.12126 37.6192 0.269578 38.082C0.417896 38.5439 1.73873 39.6091 2.39814 39.986L16.6021 48.1131C17.2615 48.4905 18.1925 48.8853 18.6705 48.9881C19.1491 49.0919 20.7385 48.4905 21.3984 48.1131L35.6029 39.986C36.2618 39.6086 37.0715 39.0062 37.4012 38.6477C37.7309 38.2896 38.0005 36.6235 38.0005 35.8686V19.6141C38 18.8598 37.7304 17.1941 37.4007 16.8356ZM17.8007 27.0076L6.1091 20.3178C5.44969 19.9404 4.90953 20.2493 4.90953 21.0036V34.3838C4.90953 35.1381 5.44969 36.0638 6.1091 36.4422L17.8007 43.1326C18.4601 43.51 19.5394 43.51 20.1988 43.1326L31.8909 36.4422C32.5493 36.0643 33.09 35.1386 33.09 34.3838V21.0036C33.09 20.2493 32.5498 19.9404 31.8909 20.3178L20.1993 27.0076C19.5394 27.3851 18.4606 27.3851 17.8007 27.0076ZM8.46566 35.1039C7.77317 34.7091 7.21147 33.7585 7.21147 32.9823C7.21147 32.2056 7.77317 31.8968 8.46566 32.2926C9.15864 32.6879 9.72035 33.6379 9.72035 34.4151C9.72035 35.1913 9.15864 35.4997 8.46566 35.1039ZM15.366 31.3108C14.673 30.915 14.1113 29.9659 14.1113 29.1892C14.1113 28.4125 14.673 28.1036 15.366 28.499C16.0584 28.8947 16.6201 29.8448 16.6201 30.6215C16.6201 31.3977 16.0584 31.7061 15.366 31.3108ZM29.0789 32.2921C29.7713 31.8963 30.3336 32.2052 30.3336 32.9818C30.3336 33.758 29.7713 34.7086 29.0789 35.1034C28.3864 35.4997 27.8247 35.1913 27.8247 34.4146C27.8247 33.6379 28.3864 32.6879 29.0789 32.2921ZM25.629 30.3965C26.3214 30.0007 26.8832 30.3096 26.8832 31.0848C26.8832 31.8615 26.3214 32.8115 25.629 33.2073C24.936 33.6031 24.3743 33.2942 24.3743 32.5175C24.3748 31.7413 24.9365 30.7908 25.629 30.3965ZM22.1791 28.499C22.8721 28.1036 23.4343 28.4125 23.4343 29.1892C23.4343 29.9654 22.8721 30.915 22.1791 31.3108C21.4866 31.7061 20.9244 31.3977 20.9244 30.622C20.9244 29.8448 21.4866 28.8947 22.1791 28.499ZM17.4098 20.4737C18.1785 20.9142 19.4131 20.9222 20.1667 20.4911C20.9209 20.0596 20.9083 19.3524 20.1397 18.9119C19.3705 18.4699 18.1359 18.4625 17.3823 18.894C16.6282 19.3246 16.6407 20.0327 17.4098 20.4737Z" fill="#5f6c7b"/>
</g>
<defs>
<clipPath id="clip0">
<rect width="38" height="49" fill="white"/>
</clipPath>
</defs>
</svg>
